<?xml version="1.0" encoding="UTF-8"?>
<svg width="36px" height="36px" viewBox="0 0 36 36" version="1.1" xmlns="http://www.w3.org/2000/svg" xmlns:xlink="http://www.w3.org/1999/xlink">
    <title>C1C7579D-43BC-4ADC-840C-07F039908BBD</title>
    <defs>
        <polygon id="path-1" points="0.00515260134 0.0342647989 35.3004718 0.0342647989 35.3004718 35.3295839 0.00515260134 35.3295839"></polygon>
    </defs>
    <g id="redesign" stroke="none" stroke-width="1" fill="none" fill-rule="evenodd">
        <g id="D_01_1_Homepage-2" transform="translate(-1464.000000, -7306.000000)">
            <g id="Footer" transform="translate(0.000000, 6861.000000)">
                <g id="Group-17" transform="translate(0.000000, 134.000000)">
                    <g id="Group-15" transform="translate(0.000000, 6.000000)">
                        <g id="Group-2" transform="translate(0.000000, 288.000000)">
                            <g id="Social-media" transform="translate(1464.000000, 17.000000)">
                                <g id="facebook">
                                    <g id="Group-3">
                                        <mask id="mask-2" fill="white">
                                            <use xlink:href="#path-1"></use>
                                        </mask>
                                        <g id="Clip-2"></g>
                                    </g>
                                    <path d="M26.4405208,7.35319149 L10.3255307,7.35319149 C8.68411071,7.35319149 7.35319149,8.68411071 7.35319149,10.3255307 L7.35319149,26.4405208 C7.35319149,28.0823171 8.68411071,29.41286 10.3255307,29.41286 L18.2733155,29.41286 L18.2868646,21.5300922 L16.2389709,21.5300922 C15.9728811,21.5300922 15.7567537,21.3150939 15.7556247,21.0486278 L15.7457451,18.5077906 C15.744616,18.2401954 15.961402,18.0226567 16.2289972,18.0226567 L18.2736918,18.0226567 L18.2736918,15.5674424 C18.2736918,12.7182685 20.0136252,11.1665173 22.5555916,11.1665173 L24.6413099,11.1665173 C24.9078701,11.1665173 25.1242798,11.3830211 25.1242798,11.6497694 L25.1242798,13.7922248 C25.1242798,14.0594436 24.9081524,14.275571 24.6413099,14.275571 L23.3615763,14.2763237 C21.9792833,14.2763237 21.7113117,14.9330799 21.7113117,15.8971377 L21.7113117,18.023033 L24.7486679,18.023033 C25.0382805,18.023033 25.262876,18.2754796 25.2287209,18.562928 L24.927347,21.1041416 C24.8986492,21.3470849 24.6924014,21.5304686 24.4476704,21.5304686 L21.7252372,21.5304686 L21.7113117,29.4135186 L26.4405208,29.4135186 C28.0819408,29.4135186 29.412766,28.0823171 29.412766,26.4408971 L29.412766,10.3255307 C29.4131422,8.68411071 28.0819408,7.35319149 26.4405208,7.35319149 Z" id="Fill-5" fill="#FFFFFF"></path>
                                </g>
                            </g>
                        </g>
                    </g>
                </g>
            </g>
        </g>
    </g>
</svg>