<?xml version="1.0" encoding="UTF-8"?>
<svg width="36px" height="36px" viewBox="0 0 36 36" version="1.1" xmlns="http://www.w3.org/2000/svg" xmlns:xlink="http://www.w3.org/1999/xlink">
    <title>5C05D06A-F7E9-4B81-BA8C-4F035AAD83F9</title>
    <defs>
        <polygon id="path-1" points="0.00525547445 0.0350364964 35.8775474 0.0350364964 35.8775474 35.9125839 0.00525547445 35.9125839"></polygon>
    </defs>
    <g id="redesign" stroke="none" stroke-width="1" fill="none" fill-rule="evenodd">
        <g id="D_01_1_Homepage-2" transform="translate(-1610.000000, -7306.000000)">
            <g id="Footer" transform="translate(0.000000, 6861.000000)">
                <g id="Group-17" transform="translate(0.000000, 134.000000)">
                    <g id="Group-15" transform="translate(0.000000, 6.000000)">
                        <g id="Group-2" transform="translate(0.000000, 288.000000)">
                            <g id="Social-media" transform="translate(1464.000000, 17.000000)">
                                <g id="instagram" transform="translate(146.000000, 0.000000)">
                                    <g id="Group-3">
                                        <mask id="mask-2" fill="white">
                                            <use xlink:href="#path-1"></use>
                                        </mask>
                                        <g id="Clip-2"></g>
                                    </g>
                                    <path d="M22.0887591,7.70575182 C25.4623358,7.70575182 28.2067445,10.4501606 28.2067445,13.8234745 L28.2067445,13.8234745 L28.2067445,22.1237956 C28.2067445,25.4973723 25.4619854,28.241781 22.0891095,28.241781 L22.0891095,28.241781 L13.788438,28.241781 C10.4151241,28.241781 7.67071533,25.4970219 7.67071533,22.1237956 L7.67071533,22.1237956 L7.67071533,13.8234745 C7.67071533,10.4501606 10.4151241,7.70575182 13.788438,7.70575182 L13.788438,7.70575182 Z M17.9387737,12.6621898 C15.0098978,12.6621898 12.6271533,15.0449343 12.6271533,17.9738102 C12.6271533,20.9022482 15.0098978,23.2849927 17.9387737,23.2849927 C20.8672117,23.2849927 23.2500438,20.9022482 23.2500438,17.9738102 C23.2500438,15.0449343 20.8672117,12.6621898 17.9387737,12.6621898 Z M17.9387737,14.7281168 C19.7309781,14.7281168 21.1841168,16.1812555 21.1841168,17.9738102 C21.1841168,19.7660146 19.7309781,21.2191533 17.9387737,21.2191533 C16.146219,21.2191533 14.6930803,19.766365 14.6930803,17.9738102 C14.6930803,16.1812555 16.146219,14.7281168 17.9387737,14.7281168 Z M23.2599416,11.429781 C22.5571095,11.429781 21.9874161,11.9994745 21.9874161,12.7025693 C21.9874161,13.4054015 22.5571095,13.9750073 23.2599416,13.9750073 C23.9630365,13.9750073 24.5327299,13.4054015 24.5327299,12.7025693 C24.5327299,11.9994745 23.9630365,11.429781 23.2599416,11.429781 Z" id="Combined-Shape" fill="#FFFFFF"></path>
                                </g>
                            </g>
                        </g>
                    </g>
                </g>
            </g>
        </g>
    </g>
</svg>