<?xml version="1.0" encoding="UTF-8"?>
<svg width="158px" height="28px" viewBox="0 0 158 28" version="1.1" xmlns="http://www.w3.org/2000/svg" xmlns:xlink="http://www.w3.org/1999/xlink">
    <title>EDAE650E-DA68-4D11-928B-F57CC0C6B448</title>
    <defs>
        <polygon id="path-1" points="0.0127876448 0.162820946 32.1408927 0.162820946 32.1408927 27.2432432 0.0127876448 27.2432432"></polygon>
    </defs>
    <g id="redesign" stroke="none" stroke-width="1" fill="none" fill-rule="evenodd">
        <g id="D_01_1_Homepage-2" transform="translate(-182.000000, -6995.000000)">
            <g id="Footer" transform="translate(0.000000, 6861.000000)">
                <g id="Group-17" transform="translate(0.000000, 134.000000)">
                    <g id="logo_2" transform="translate(182.000000, 0.000000)">
                        <g id="Group-3">
                            <mask id="mask-2" fill="white">
                                <use xlink:href="#path-1"></use>
                            </mask>
                            <g id="Clip-2"></g>
                            <path d="M32.1408927,0.162820946 L28.4834131,19.8792669 C27.7300077,23.9397872 23.8093158,27.2432432 19.743271,27.2432432 L19.743271,27.2432432 L1.59872116e-13,27.2432432 L3.65769266,7.52658446 C4.41088494,3.46627703 8.33157683,0.162820946 12.3976216,0.162820946 L12.3976216,0.162820946 L32.1408927,0.162820946 Z M13.4903259,20.6869865 L7.78149498,20.6869865 C6.04749035,20.6869865 4.38126023,22.0908649 4.05986409,23.8225135 L4.05986409,23.8225135 L9.76890811,23.8225135 C11.5029127,23.8225135 13.1691429,22.4186351 13.4903259,20.6869865 L13.4903259,20.6869865 Z M20.7856772,12.1351622 L9.36801544,12.1351622 C7.63379768,12.1351622 5.96756757,13.5390405 5.64638456,15.270902 L5.64638456,15.270902 L17.0642595,15.270902 C18.7982641,15.270902 20.4644942,13.8670236 20.7856772,12.1351622 L20.7856772,12.1351622 Z M28.0810286,3.58355068 L10.9543228,3.58355068 C9.22031815,3.58355068 7.55408803,4.98742905 7.23269189,6.7190777 L7.23269189,6.7190777 L24.3593977,6.7190777 C26.0936154,6.7190777 27.7598456,5.31519932 28.0810286,3.58355068 L28.0810286,3.58355068 Z" id="Combined-Shape" fill="#FFFFFF" mask="url(#mask-2)"></path>
                        </g>
                        <path d="M46.6612633,4.07392905 C47.3803552,4.07392905 47.5664154,4.31401014 47.4321452,4.97806419 L47.1940819,6.27999324 C47.0879444,6.94191892 46.7955336,7.182 46.1305761,7.182 L38.3541961,7.182 L37.5029653,12.0700338 L44.3665205,12.0700338 C45.0312649,12.0700338 45.2175382,12.3101149 45.1114008,12.9720405 L44.8709931,14.2739696 C44.7650687,14.940152 44.5267923,15.1781047 43.8077004,15.1781047 L36.9441452,15.1781047 L35.7487135,22.0299932 C35.6144432,22.6961757 35.3501653,22.9341284 34.6852077,22.9341284 L33.1410996,22.9341284 C32.4761421,22.9341284 32.2898687,22.6961757 32.3960062,22.0299932 L35.4021683,4.97806419 C35.5343073,4.31401014 35.8007166,4.07392905 36.465461,4.07392905 L46.6612633,4.07392905" id="Fill-7" fill="#FFFFFF"></path>
                        <path d="M58.7106347,9.17394932 C59.3214579,9.17394932 59.4817297,9.35996959 59.3753792,9.97209122 L57.4610687,20.9138716 C57.2747954,21.7660743 57.0343876,22.0559595 56.1571552,22.4020338 C54.4809081,23.0141554 52.6983104,23.3321351 50.7837869,23.3321351 C47.0866656,23.3321351 45.5966919,21.2599459 46.2096463,17.7821757 L47.5653498,9.97209122 C47.6714873,9.35996959 47.911895,9.17394932 48.5487197,9.17394932 L49.9866903,9.17394932 C50.5975135,9.17394932 50.7577853,9.35996959 50.6516479,9.97209122 L49.2675985,17.8860405 C48.9493992,19.6400372 49.7462826,20.5160777 51.6891521,20.5160777 C52.6181745,20.5160777 53.4694054,20.4122128 54.1884973,20.198098 C54.4007722,20.1180709 54.5350425,19.9861115 54.561044,19.7460304 L56.2892942,9.97209122 C56.3954317,9.35996959 56.6358394,9.17394932 57.2464494,9.17394932 L58.7106347,9.17394932" id="Fill-8" fill="#FFFFFF"></path>
                        <path d="M70.10059,9.17394932 C70.7135444,9.17394932 70.8716849,9.35996959 70.7395459,9.97209122 L70.5532726,11.1939932 C70.4731367,11.7520541 70.1547243,12.015973 69.5961174,12.015973 L66.5639537,12.015973 L65.6065853,17.3560743 C65.3943104,18.6041554 65.4723151,19.4282635 65.8188602,19.8260574 C66.1654054,20.2261926 66.9102857,20.4122128 68.079929,20.4122128 C68.7188849,20.4122128 68.8770255,20.5961047 68.7706749,21.2339797 L68.5586131,22.4560946 C68.4264741,23.0941824 68.212068,23.2799899 67.5752432,23.3061689 C65.3141745,23.3859831 63.8242008,22.9881892 63.0531058,22.1381149 C62.2820108,21.2859122 62.0957375,19.7200642 62.5202873,17.4622804 L63.4776556,12.015973 L61.6430548,12.015973 C61.0303135,12.015973 60.8440402,11.8039865 60.9523089,11.1939932 L61.1645838,9.97209122 C61.2707212,9.35996959 61.5087846,9.17394932 62.1477405,9.17394932 L70.10059,9.17394932" id="Fill-9" fill="#FFFFFF"></path>
                        <path d="M78.0080432,8.77594257 C80.7995861,8.77594257 82.5020479,9.73201014 83.1410039,11.6179662 C83.3272772,12.176027 83.1150023,12.5740338 82.5561822,12.8141149 L81.3846208,13.2661824 C80.7477961,13.5039223 80.6133127,13.4262365 80.3211151,12.8681757 C79.9485683,11.9900068 79.0453344,11.5400676 77.6073637,11.5400676 C75.9592494,11.5400676 75.0278826,12.015973 74.8416093,12.9720405 C74.6293344,14.1420101 75.4004293,14.4080574 77.6614981,14.6200439 C81.0399938,14.9661182 82.8204602,16.1339595 82.2899861,19.1102838 C81.8373035,21.7660743 79.5500201,23.3321351 75.8268973,23.3321351 C72.686678,23.3321351 70.8780788,22.2700743 70.4256093,20.1180709 C70.3194718,19.5859764 70.5598795,19.2139358 71.1704896,19.0021622 L72.4484015,18.6301216 C73.0592247,18.4441014 73.1932819,18.5262568 73.4317714,19.13625 C73.7523151,20.1180709 74.6813375,20.5961047 76.1973127,20.5961047 C78.0600463,20.5961047 79.0973375,20.0661385 79.2836108,19.0279155 C79.4958857,17.8600743 78.7247907,17.567848 76.3835861,17.3279797 C74.8957436,17.1962331 73.9643768,16.9301858 72.9530873,16.2940135 C71.9415846,15.6818919 71.5170347,14.4859561 71.8094456,12.8681757 C72.2621282,10.2900709 74.3889266,8.77594257 78.0080432,8.77594257" id="Fill-10" fill="#FFFFFF"></path>
                        <path d="M91.4730069,11.592 C89.3199938,11.592 88.1742208,12.3880135 87.8300201,14.3820912 L87.2170656,17.8338953 C86.9246548,19.6140709 87.7238826,20.5160777 89.6384062,20.5160777 C90.5154255,20.5160777 91.4467923,20.4122128 92.4301622,20.1721318 L93.84,12.2279595 C93.8943475,12.0700338 93.8142116,11.9640405 93.6279382,11.8840135 C92.9889822,11.6979932 92.2722347,11.592 91.4730069,11.592 Z M84.8496463,13.9819561 C85.4626008,10.370098 87.6177452,8.77594257 91.7394162,8.77594257 C93.7598641,8.77594257 95.3301869,9.04198986 96.4216124,9.60005068 C97.1927073,9.99805743 97.2728432,10.2121723 97.1387861,11.0599054 L95.250051,21.6860473 C95.1439135,22.2960405 94.9316386,22.5101554 94.2666811,22.6961757 C92.5102981,23.1199358 90.7277004,23.3321351 88.8933127,23.3321351 C85.1961915,23.3321351 83.5459459,21.0739257 84.1849019,17.5961554 L84.8496463,13.9819561 L84.8496463,13.9819561 Z" id="Fill-11" fill="#FFFFFF"></path>
                        <path d="M100.976358,22.1121486 C100.844219,22.7221419 100.603812,22.9341284 99.9932015,22.9341284 L98.5573622,22.9341284 C97.9184062,22.9341284 97.7581344,22.7221419 97.8924046,22.1121486 L100.918388,4.89590878 C101.024525,4.28591554 101.264933,4.07392905 101.903889,4.07392905 L103.339728,4.07392905 C103.950338,4.07392905 104.11061,4.28591554 104.004686,4.89590878 L100.976358,22.1121486" id="Fill-12" fill="#FFFFFF"></path>
                        <path d="M118.466873,4.07392905 C118.813418,4.07392905 118.97369,4.25994932 118.919555,4.60602365 L118.759283,5.35010473 C118.70728,5.69596622 118.521007,5.88198649 118.174462,5.88198649 L108.320729,5.88198649 L107.122953,12.7600541 L115.182153,12.7600541 C115.582832,12.7600541 115.68897,12.8681757 115.608834,13.2661824 L115.476695,14.0102635 C115.422561,14.3539966 115.210286,14.5400169 114.863741,14.5400169 L106.804541,14.5400169 L105.394703,22.4020338 C105.340568,22.7481081 105.128293,22.9341284 104.784093,22.9341284 L103.904729,22.9341284 C103.506181,22.9341284 103.39983,22.8000405 103.479966,22.4020338 L106.618267,4.60602365 C106.698403,4.25994932 106.884676,4.07392905 107.22909,4.07392905 L118.466873,4.07392905" id="Fill-13" fill="#FFFFFF"></path>
                        <path d="M123.914409,10.4241588 C121.335141,10.4241588 119.552757,11.8840135 119.099861,14.3280304 L118.887586,15.364125 C120.243503,15.6561385 121.653341,15.8138514 123.115181,15.8138514 C125.562737,15.8138514 126.972575,15.0180507 127.371123,13.3981419 C127.823805,11.4860068 126.548238,10.4241588 123.914409,10.4241588 Z M117.343478,14.2999358 C117.956432,10.8221655 120.429776,8.88193581 124.180819,8.88193581 C127.797804,8.88193581 129.766462,10.7138311 129.101717,13.6122568 C128.5949,16.0279662 126.494103,17.2241149 122.851117,17.2241149 C121.441279,17.2241149 120.031228,17.090027 118.647178,16.7980135 L118.408902,18.1261216 C118.008222,20.4641453 119.126076,21.7660743 121.759478,21.7660743 C123.702347,21.7660743 125.19019,21.0739257 126.281829,19.6683446 C126.548238,19.3739899 126.814647,19.2963041 127.078712,19.4823243 L127.585529,19.8000912 C127.87794,19.9861115 127.87794,20.2261926 127.611531,20.5701385 C126.227694,22.4020338 124.180819,23.3061689 121.493069,23.3061689 C117.664022,23.3061689 116.093699,21.1281993 116.706653,17.7540811 L117.343478,14.2999358 L117.343478,14.2999358 Z" id="Fill-14" fill="#FFFFFF"></path>
                        <g id="Group-18" transform="translate(129.368340, 4.043919)" fill="#FFFFFF">
                            <path d="M7.40042317,6.38023986 C4.82072896,6.38023986 3.0383444,7.84009459 2.58566178,10.2841115 L2.37338687,11.3202061 C3.72909035,11.6122196 5.13914131,11.7699324 6.60119537,11.7699324 C9.04832432,11.7699324 10.4583753,10.9741318 10.8569236,9.35422297 C11.3096062,7.44208784 10.0338255,6.38023986 7.40042317,6.38023986 Z M0.829278764,10.2560169 C1.4422332,6.77824662 3.91536371,4.83801689 7.66661931,4.83801689 C11.2836046,4.83801689 13.2522625,6.66991216 12.5875181,9.56833784 C12.0807012,11.9840473 9.97969112,13.1801959 6.33691737,13.1801959 C4.92686641,13.1801959 3.51702857,13.0461081 2.13297915,12.7540946 L1.89491583,14.0822027 C1.49423629,16.4202264 2.61166332,17.7221554 5.24549189,17.7221554 C7.18814826,17.7221554 8.67599073,17.0300068 9.76741622,15.6244257 C10.0338255,15.3300709 10.3002347,15.2523851 10.5647259,15.4384054 L11.0713297,15.7561723 C11.3637405,15.9421926 11.3637405,16.1822736 11.0973313,16.5262196 C9.71328185,18.3581149 7.66661931,19.26225 4.97908263,19.26225 C1.14982239,19.26225 -0.420287259,17.0842804 0.192667181,13.7101622 L0.829278764,10.2560169 L0.829278764,10.2560169 Z" id="Fill-15"></path>
                            <path d="M24.2178811,7.25606757 C22.9681019,6.75228041 21.7185359,6.48389189 20.4687568,6.48389189 C17.9672803,6.48389189 16.4773066,7.73410135 16.0265421,10.2040845 L15.3617977,13.924277 C14.9351166,16.3942601 16.0527568,17.6421284 18.6863722,17.6421284 C19.8818039,17.6421284 20.9734425,17.4820743 21.9849452,17.1383412 C22.4354965,16.9523209 22.5156324,16.8699527 22.5957683,16.4461926 L24.2178811,7.25606757 Z M14.2961606,10.0180642 C14.9091151,6.56626014 16.9559907,4.83801689 20.4406239,4.83801689 C21.7185359,4.83801689 23.0742394,5.10406419 24.5100788,5.61019257 L25.4101158,0.508043919 C25.4642502,0.190064189 25.6505236,0.0300101351 25.9949375,0.0300101351 L26.8201668,0.0300101351 C27.1407104,0.0300101351 27.2726363,0.190064189 27.1925004,0.508043919 L24.2720154,17.0300101 C24.0857421,17.8822095 23.8994687,18.1201622 22.9681019,18.4662365 C21.6384,18.9962027 20.0680772,19.26225 18.2596911,19.26225 C14.5084355,19.26225 12.9924602,17.3243615 13.6054147,13.8161554 L14.2961606,10.0180642 L14.2961606,10.0180642 Z" id="Fill-17"></path>
                        </g>
                    </g>
                </g>
            </g>
        </g>
    </g>
</svg>