<?xml version="1.0" encoding="UTF-8"?>
<svg width="36px" height="36px" viewBox="0 0 36 36" version="1.1" xmlns="http://www.w3.org/2000/svg" xmlns:xlink="http://www.w3.org/1999/xlink">
    <title>5470EA8D-3617-46BE-BF4C-63093A8AA8FD</title>
    <defs>
        <polygon id="path-1" points="0.00526829268 0.0350364964 35.9650537 0.0350364964 35.9650537 35.9125839 0.00526829268 35.9125839"></polygon>
    </defs>
    <g id="redesign" stroke="none" stroke-width="1" fill="none" fill-rule="evenodd">
        <g id="D_01_1_Homepage-2" transform="translate(-1537.000000, -7306.000000)">
            <g id="Footer" transform="translate(0.000000, 6861.000000)">
                <g id="Group-17" transform="translate(0.000000, 134.000000)">
                    <g id="Group-15" transform="translate(0.000000, 6.000000)">
                        <g id="Group-2" transform="translate(0.000000, 288.000000)">
                            <g id="Social-media" transform="translate(1464.000000, 17.000000)">
                                <g id="twitter" transform="translate(73.000000, 0.000000)">
                                    <g id="Group-3">
                                        <mask id="mask-2" fill="white">
                                            <use xlink:href="#path-1"></use>
                                        </mask>
                                        <g id="Clip-2"></g>
                                    </g>
                                    <path d="M29.6422108,11.6098997 C29.142122,11.8317775 28.6233195,12.0064391 28.0909854,12.1332127 C28.6776373,11.5757351 29.1188978,10.8781443 29.3678386,10.0998445 C29.4386629,9.87758285 29.1972076,9.68526315 28.9966347,9.8044553 C28.2559543,10.2437964 27.4577891,10.5733502 26.6247876,10.7839998 C26.5765158,10.7963797 26.5269963,10.8027136 26.4767091,10.8027136 C26.3248879,10.8027136 26.1775772,10.7461885 26.06136,10.6441746 C25.1751923,9.86289976 24.0351894,9.4329635 22.8517131,9.4329635 C22.3396283,9.4329635 21.8226491,9.51280881 21.3150748,9.67029216 C19.7421607,10.1580011 18.5286464,11.4553913 18.1474619,13.0561362 C18.0045656,13.6563195 17.9663704,14.2575585 18.0326842,14.8420031 C18.0401697,14.9094685 18.0086923,14.9563969 17.9888269,14.9780856 C17.9543744,15.0167607 17.9056227,15.0388333 17.8550476,15.0388333 C17.8493855,15.0388333 17.8434355,15.0388333 17.8377734,15.0380656 C14.3949244,14.7183005 11.2897866,13.059495 9.09567214,10.3674991 C8.98396548,10.229977 8.76918929,10.2467714 8.67993913,10.3997443 C8.25038674,11.1375456 8.02313472,11.9806237 8.02313472,12.8386729 C8.02313472,14.1533373 8.55172599,15.3930509 9.46946717,16.2964928 C9.08329227,16.2050354 8.70997709,16.0606997 8.36276517,15.8680921 C8.19482132,15.7747153 7.98829836,15.8946752 7.9860911,16.0869949 C7.96209912,18.0404218 9.10584473,19.7787846 10.8193519,20.5614989 C10.7848994,20.5622666 10.750063,20.5626505 10.7155146,20.5626505 C10.4441173,20.5626505 10.1689773,20.5363553 9.89825181,20.4846286 C9.70938695,20.4486406 9.55046409,20.6278127 9.60890855,20.8111115 C10.1652345,22.5475549 11.6602227,23.827383 13.4494485,24.11759 C11.964633,25.1143128 10.2352911,25.6403129 8.43589272,25.6403129 L7.87505622,25.639929 C7.7019301,25.639929 7.555675,25.7527873 7.51181767,25.9203473 C7.4683442,26.0849323 7.5481895,26.2588261 7.69588413,26.3447174 C9.7235902,27.5247389 12.0366089,28.1485303 14.3859035,28.1485303 C16.442112,28.1485303 18.3655969,27.7406667 20.1028081,26.9354959 C21.6955876,26.1980784 23.1028611,25.1431991 24.2859536,23.8011838 C25.3881451,22.5509138 26.249937,21.1076523 26.8475292,19.5111301 C27.4169068,17.9898467 27.7179582,16.3658776 27.7179582,14.8161877 L27.7179582,14.7419086 C27.7179582,14.4933517 27.8308164,14.259094 28.0272627,14.0994034 C28.7720697,13.4943257 29.4213887,12.7820518 29.9559299,11.9824471 C30.0969068,11.7717976 29.8746451,11.5067342 29.6422108,11.6098997 Z" id="Fill-5" fill="#FFFFFF"></path>
                                </g>
                            </g>
                        </g>
                    </g>
                </g>
            </g>
        </g>
    </g>
</svg>