<?xml version="1.0" encoding="UTF-8"?>
<svg width="36px" height="36px" viewBox="0 0 36 36" version="1.1" xmlns="http://www.w3.org/2000/svg" xmlns:xlink="http://www.w3.org/1999/xlink">
    <title>44F25400-CEEC-4496-912B-E0430CEB8706</title>
    <defs>
        <polygon id="path-1" points="0.00525547445 0.0350364964 35.8775474 0.0350364964 35.8775474 35.9125839 0.00525547445 35.9125839"></polygon>
    </defs>
    <g id="redesign" stroke="none" stroke-width="1" fill="none" fill-rule="evenodd">
        <g id="D_01_1_Homepage-2" transform="translate(-1683.000000, -7306.000000)">
            <g id="Footer" transform="translate(0.000000, 6861.000000)">
                <g id="Group-17" transform="translate(0.000000, 134.000000)">
                    <g id="Group-15" transform="translate(0.000000, 6.000000)">
                        <g id="Group-2" transform="translate(0.000000, 288.000000)">
                            <g id="Social-media" transform="translate(1464.000000, 17.000000)">
                                <g id="youtube" transform="translate(219.000000, 0.000000)">
                                    <g id="Group-3">
                                        <mask id="mask-2" fill="white">
                                            <use xlink:href="#path-1"></use>
                                        </mask>
                                        <g id="Clip-2"></g>
                                    </g>
                                    <path d="M23.940438,10.7095182 L11.9370219,10.7095182 C9.5820438,10.7095182 7.67281752,12.6187445 7.67281752,14.9734599 L7.67281752,20.9741606 C7.67281752,23.3291387 9.5820438,25.2380146 11.9370219,25.2380146 L23.940438,25.2380146 C26.2955036,25.2380146 28.2043796,23.3287883 28.2043796,20.9741606 L28.2043796,14.9734599 C28.2043796,12.6187445 26.2951533,10.7095182 23.940438,10.7095182 Z M21.0564964,18.2656642 L15.4424234,20.9433285 C15.2925547,21.0148905 15.1197372,20.9056642 15.1197372,20.7401168 L15.1197372,15.2174015 C15.1197372,15.0490511 15.2970219,14.9402628 15.4468905,15.0162044 L21.0612263,17.8612555 C21.2285255,17.9456934 21.2254599,18.1852555 21.0564964,18.2656642 Z" id="Fill-5" fill="#FFFFFF"></path>
                                </g>
                            </g>
                        </g>
                    </g>
                </g>
            </g>
        </g>
    </g>
</svg>