<?xml version="1.0" encoding="UTF-8"?>
<svg width="31px" height="31px" viewBox="0 0 31 31" version="1.1" xmlns="http://www.w3.org/2000/svg" xmlns:xlink="http://www.w3.org/1999/xlink">
    <title>2563B460-FAD8-4DFB-87C6-5B56BF9AB2F4</title>
    <defs>
        <polygon id="path-1" points="0.00448467153 0.0298230657 30.7244847 0.0298230657 30.7244847 30.7498231 0.00448467153 30.7498231"></polygon>
    </defs>
    <g id="redesign" stroke="none" stroke-width="1" fill="none" fill-rule="evenodd">
        <g id="D_01_1_Homepage-2" transform="translate(-1318.000000, -56.000000)">
            <g id="Header" transform="translate(182.000000, 44.000000)">
                <g id="Social-media" transform="translate(1136.000000, 12.000000)">
                    <g id="facebook">
                        <g id="Group-3">
                            <mask id="mask-2" fill="white">
                                <use xlink:href="#path-1"></use>
                            </mask>
                            <g id="Clip-2"></g>
                        </g>
                        <path d="M23.0130458,6.4 L8.98703598,6.4 C7.55839265,6.4 6.4,7.55839265 6.4,8.98703598 L6.4,23.0130458 C6.4,24.4420167 7.55839265,25.6000818 8.98703598,25.6000818 L15.9045523,25.6000818 L15.9163451,18.7391543 L14.1339191,18.7391543 C13.9023224,18.7391543 13.7142116,18.5520262 13.7132289,18.320102 L13.70463,16.1086325 C13.7036472,15.8757256 13.8923314,15.6863863 14.1252383,15.6863863 L15.9048799,15.6863863 L15.9048799,13.5494406 C15.9048799,11.069604 17.4192664,9.71900583 19.6317186,9.71900583 L21.447066,9.71900583 C21.6790722,9.71900583 21.8674287,9.90744425 21.8674287,10.1396141 L21.8674287,12.0043438 C21.8674287,12.2369231 21.6793178,12.425034 21.447066,12.425034 L20.3332238,12.4256891 C19.130117,12.4256891 18.8968824,12.9973103 18.8968824,13.8363977 L18.8968824,15.6867139 L21.5405073,15.6867139 C21.7925774,15.6867139 21.9880588,15.9064359 21.9583312,16.1566225 L21.6960242,18.3684195 C21.6710465,18.5798702 21.4915346,18.7394819 21.2785279,18.7394819 L18.9090028,18.7394819 L18.8968824,25.6006551 L23.0130458,25.6006551 C24.4416892,25.6006551 25.6,24.4420167 25.6,23.0133734 L25.6,8.98703598 C25.6003275,7.55839265 24.4416892,6.4 23.0130458,6.4 Z" id="Fill-5" fill="#FFFFFF"></path>
                    </g>
                </g>
            </g>
        </g>
    </g>
</svg>