<?xml version="1.0" encoding="UTF-8"?>
<svg width="32px" height="32px" viewBox="0 0 32 32" version="1.1" xmlns="http://www.w3.org/2000/svg" xmlns:xlink="http://www.w3.org/1999/xlink">
    <title>F2CD9E71-FCA6-4DA9-AC3A-197BF8EA668D</title>
    <defs>
        <polygon id="path-1" points="0.00467153285 0.0311435523 31.8911533 0.0311435523 31.8911533 31.9222968 0.00467153285 31.9222968"></polygon>
    </defs>
    <g id="redesign" stroke="none" stroke-width="1" fill="none" fill-rule="evenodd">
        <g id="D_01_1_Homepage-2" transform="translate(-1414.000000, -56.000000)">
            <g id="Header" transform="translate(182.000000, 44.000000)">
                <g id="Social-media" transform="translate(1136.000000, 12.000000)">
                    <g id="instagram" transform="translate(96.000000, 0.000000)">
                        <g id="Group-3">
                            <mask id="mask-2" fill="white">
                                <use xlink:href="#path-1"></use>
                            </mask>
                            <g id="Clip-2"></g>
                        </g>
                        <path d="M19.6344526,6.84955718 C22.6331873,6.84955718 25.0726618,9.28903163 25.0726618,12.2875328 L25.0726618,12.2875328 L25.0726618,19.6655961 C25.0726618,22.6643309 22.6328759,25.1038054 19.634764,25.1038054 L19.634764,25.1038054 L12.2563893,25.1038054 C9.25788808,25.1038054 6.81841363,22.6640195 6.81841363,19.6655961 L6.81841363,19.6655961 L6.81841363,12.2875328 C6.81841363,9.28903163 9.25788808,6.84955718 12.2563893,6.84955718 L12.2563893,6.84955718 Z M15.9455766,11.2552798 C13.3421314,11.2552798 11.2241363,13.3732749 11.2241363,15.9767202 C11.2241363,18.5797762 13.3421314,20.6977713 15.9455766,20.6977713 C18.5486326,20.6977713 20.6667056,18.5797762 20.6667056,15.9767202 C20.6667056,13.3732749 18.5486326,11.2552798 15.9455766,11.2552798 Z M15.9455766,13.0916594 C17.5386472,13.0916594 18.830326,14.3833382 18.830326,15.9767202 C18.830326,17.5697908 17.5386472,18.8614696 15.9455766,18.8614696 C14.3521946,18.8614696 13.0605158,17.5701022 13.0605158,15.9767202 C13.0605158,14.3833382 14.3521946,13.0916594 15.9455766,13.0916594 Z M20.6755036,10.1598054 C20.050764,10.1598054 19.5443698,10.6661995 19.5443698,11.2911727 C19.5443698,11.9159124 20.050764,12.4222287 20.6755036,12.4222287 C21.3004769,12.4222287 21.806871,11.9159124 21.806871,11.2911727 C21.806871,10.6661995 21.3004769,10.1598054 20.6755036,10.1598054 Z" id="Combined-Shape" fill="#FFFFFF"></path>
                    </g>
                </g>
            </g>
        </g>
    </g>
</svg>