<?xml version="1.0" encoding="UTF-8"?>
<svg width="207px" height="36px" viewBox="0 0 207 36" version="1.1" xmlns="http://www.w3.org/2000/svg" xmlns:xlink="http://www.w3.org/1999/xlink">
    <title>AA7F072D-BAF4-4257-B7E3-46476E910F02</title>
    <defs>
        <polygon id="path-1" points="0.0168979592 0.21515625 42.4718939 0.21515625 42.4718939 36 0.0168979592 36"></polygon>
    </defs>
    <g id="redesign" stroke="none" stroke-width="1" fill="none" fill-rule="evenodd">
        <g id="D_01_1_Homepage-2" transform="translate(-182.000000, -53.000000)">
            <g id="Header" transform="translate(182.000000, 44.000000)">
                <g id="logo_2" transform="translate(0.000000, 9.000000)">
                    <g id="Group-3">
                        <mask id="mask-2" fill="white">
                            <use xlink:href="#path-1"></use>
                        </mask>
                        <g id="Clip-2"></g>
                        <path d="M42.4718939,0.21515625 L37.6387959,26.2690313 C36.6432245,31.6347188 31.4623102,36 26.0893224,36 L26.0893224,36 L1.11910481e-12,36 L4.83337959,9.94584375 C5.82866939,4.5804375 11.0095837,0.21515625 16.3825714,0.21515625 L16.3825714,0.21515625 L42.4718939,0.21515625 Z M17.826502,27.336375 L10.2826898,27.336375 C7.99132653,27.336375 5.78952245,29.1915 5.36482041,31.47975 L5.36482041,31.47975 L12.9089143,31.47975 C15.2002776,31.47975 17.4020816,29.624625 17.826502,27.336375 L17.826502,27.336375 Z M27.4667878,16.03575 L12.3791633,16.03575 C10.0875184,16.03575 7.88571429,17.890875 7.46129388,20.1794063 L7.46129388,20.1794063 L22.5492,20.1794063 C24.8405633,20.1794063 27.0423673,18.3242813 27.4667878,16.03575 L27.4667878,16.03575 Z M37.1070735,4.73540625 L14.4753551,4.73540625 C12.1839918,4.73540625 9.98218776,6.59053125 9.55748571,8.87878125 L9.55748571,8.87878125 L32.1892041,8.87878125 C34.480849,8.87878125 36.6826531,7.02365625 37.1070735,4.73540625 L37.1070735,4.73540625 Z" id="Combined-Shape" fill="#DF542E" mask="url(#mask-2)"></path>
                    </g>
                    <path d="M61.6595265,5.38340625 C62.6097551,5.38340625 62.8556204,5.70065625 62.6781918,6.57815625 L62.3636082,8.2985625 C62.2233551,9.17325 61.8369551,9.4905 60.9582612,9.4905 L50.6823306,9.4905 L49.5574898,15.9496875 L58.6271878,15.9496875 C59.5056,15.9496875 59.7517469,16.2669375 59.6114939,17.141625 L59.2938122,18.8620313 C59.1538408,19.7423438 58.8389755,20.0567813 57.8887469,20.0567813 L48.819049,20.0567813 L47.2393714,29.1110625 C47.0619429,29.991375 46.7127184,30.3058125 45.8340245,30.3058125 L43.7935959,30.3058125 C42.914902,30.3058125 42.6687551,29.991375 42.8090082,29.1110625 L46.7814367,6.57815625 C46.956049,5.70065625 47.3080898,5.38340625 48.186502,5.38340625 L61.6595265,5.38340625" id="Fill-7" fill="#DF542E"></path>
                    <path d="M77.5819102,12.1227188 C78.3890694,12.1227188 78.6008571,12.3685313 78.4603224,13.1774063 L75.930698,27.6361875 C75.684551,28.7623125 75.3668694,29.145375 74.2076694,29.6026875 C71.9926286,30.4115625 69.6370531,30.83175 67.1071469,30.83175 C62.2216653,30.83175 60.2527714,28.0935 61.0627469,23.497875 L62.8542122,13.1774063 C62.9944653,12.3685313 63.3121469,12.1227188 64.1536653,12.1227188 L66.0538408,12.1227188 C66.861,12.1227188 67.0727878,12.3685313 66.9325347,13.1774063 L65.1036122,23.635125 C64.6831347,25.9529063 65.7361592,27.1105313 68.3035224,27.1105313 C69.5311592,27.1105313 70.656,26.9732812 71.6062286,26.6903438 C71.8867347,26.5845937 72.0641633,26.4102187 72.0985224,26.0929688 L74.3822816,13.1774063 C74.5225347,12.3685313 74.8402163,12.1227188 75.6470939,12.1227188 L77.5819102,12.1227188" id="Fill-8" fill="#DF542E"></path>
                    <path d="M92.6329224,12.1227188 C93.442898,12.1227188 93.6518694,12.3685313 93.4772571,13.1774063 L93.2311102,14.7920625 C93.1252163,15.5295 92.7044571,15.87825 91.966298,15.87825 L87.9595102,15.87825 L86.6944163,22.9348125 C86.4139102,24.5840625 86.5169878,25.6730625 86.9749224,26.1987188 C87.4328571,26.7274688 88.4171633,26.9732812 89.9627633,26.9732812 C90.807098,26.9732812 91.0160694,27.2162813 90.8755347,28.0591875 L90.5953102,29.674125 C90.420698,30.5173125 90.1373755,30.7628438 89.2958571,30.7974375 C86.3080163,30.9029063 84.3391224,30.37725 83.3201755,29.2539375 C82.3012286,28.1278125 82.0550816,26.0586563 82.6160939,23.0751563 L83.8811878,15.87825 L81.4568939,15.87825 C80.6472,15.87825 80.4010531,15.598125 80.5441224,14.7920625 L80.8246286,13.1774063 C80.9648816,12.3685313 81.2794653,12.1227188 82.1238,12.1227188 L92.6329224,12.1227188" id="Fill-9" fill="#DF542E"></path>
                    <path d="M103.082057,11.5967812 C106.770882,11.5967812 109.020563,12.8601562 109.864898,15.3523125 C110.111045,16.08975 109.830539,16.6156875 109.092098,16.9329375 L107.543963,17.5303125 C106.702445,17.8444688 106.524735,17.7418125 106.138616,17.004375 C105.646322,15.8439375 104.452763,15.249375 102.552588,15.249375 C100.374722,15.249375 99.1439878,15.87825 98.8978408,17.141625 C98.6173347,18.6876562 99.6362816,19.0392187 102.624122,19.3193437 C107.088563,19.7766562 109.441322,21.319875 108.740339,25.252875 C108.142151,28.7623125 105.119669,30.83175 100.199829,30.83175 C96.0502531,30.83175 93.6603184,29.4283125 93.0624122,26.5845937 C92.9221592,25.8814687 93.2398408,25.3898437 94.0467184,25.11 L95.7353878,24.618375 C96.5425469,24.3725625 96.7196939,24.481125 97.0348408,25.2871875 C97.4584163,26.5845937 98.6860531,27.2162813 100.689306,27.2162813 C103.150776,27.2162813 104.521482,26.5159687 104.767629,25.1440312 C105.048135,23.6008125 104.029188,23.2146562 100.935453,22.8976875 C98.9693755,22.7235937 97.7386408,22.3720312 96.4022939,21.531375 C95.0656653,20.7225 94.5046531,19.1421562 94.8910531,17.004375 C95.4892408,13.5975937 98.2996531,11.5967812 103.082057,11.5967812" id="Fill-10" fill="#DF542E"></path>
                    <path d="M120.875045,15.318 C118.029992,15.318 116.515935,16.369875 116.061098,19.0049062 L115.251122,23.5662187 C114.864722,25.9185937 115.920845,27.1105312 118.450751,27.1105312 C119.609669,27.1105312 120.840404,26.9732812 122.139857,26.6560312 L124.002857,16.158375 C124.074673,15.9496875 123.96878,15.809625 123.722633,15.703875 C122.878298,15.4580625 121.931167,15.318 120.875045,15.318 Z M112.122747,18.4761562 C112.932722,13.7033437 115.780592,11.5967812 121.227086,11.5967812 C123.896963,11.5967812 125.972033,11.9483437 127.414273,12.6857812 C128.43322,13.2117187 128.539114,13.4946562 128.361967,14.614875 L125.866139,28.6565625 C125.725886,29.462625 125.44538,29.7455625 124.566686,29.991375 C122.245751,30.5513438 119.890176,30.83175 117.466163,30.83175 C112.580682,30.83175 110.4,27.8476875 111.244335,23.2520625 L112.122747,18.4761562 L112.122747,18.4761562 Z" id="Fill-11" fill="#DF542E"></path>
                    <path d="M133.433045,29.219625 C133.258433,30.0256875 132.940751,30.3058125 132.133873,30.3058125 L130.236514,30.3058125 C129.39218,30.3058125 129.180392,30.0256875 129.35782,29.219625 L133.356441,6.46959375 C133.496694,5.66353125 133.814376,5.38340625 134.65871,5.38340625 L136.556069,5.38340625 C137.362947,5.38340625 137.574735,5.66353125 137.434763,6.46959375 L133.433045,29.219625" id="Fill-12" fill="#DF542E"></path>
                    <path d="M156.54551,5.38340625 C157.003445,5.38340625 157.215233,5.62921875 157.143698,6.08653125 L156.93191,7.06978125 C156.863192,7.5268125 156.617045,7.772625 156.15911,7.772625 L143.138106,7.772625 L141.555331,16.8615 L152.204988,16.8615 C152.734457,16.8615 152.87471,17.004375 152.768816,17.5303125 L152.594204,18.5135625 C152.522669,18.9677813 152.242163,19.2135938 151.784229,19.2135938 L141.134571,19.2135938 L139.271571,29.6026875 C139.200037,30.06 138.919531,30.3058125 138.464694,30.3058125 L137.302678,30.3058125 C136.776024,30.3058125 136.63549,30.128625 136.741384,29.6026875 L140.888424,6.08653125 C140.994318,5.62921875 141.240465,5.38340625 141.695584,5.38340625 L156.54551,5.38340625" id="Fill-13" fill="#FFFFFF"></path>
                    <path d="M163.744041,13.7747813 C160.335722,13.7747813 157.980429,15.703875 157.381959,18.9334688 L157.101453,20.3025937 C158.8932,20.6884688 160.7562,20.896875 162.687918,20.896875 C165.922188,20.896875 167.785188,19.8452813 168.311841,17.7046875 C168.910029,15.1779375 167.224457,13.7747813 163.744041,13.7747813 Z M155.061024,18.8963437 C155.871,14.3007187 159.139347,11.7368438 164.096082,11.7368438 C168.875669,11.7368438 171.47711,14.1575625 170.598698,17.987625 C169.928976,21.1798125 167.152922,22.7604375 162.338976,22.7604375 C160.475976,22.7604375 158.612694,22.58325 156.783771,22.197375 L156.468906,23.952375 C155.939437,27.0419063 157.4166,28.7623125 160.896453,28.7623125 C163.463816,28.7623125 165.429894,27.8476875 166.872416,25.9903125 C167.224457,25.6013438 167.576498,25.4986875 167.925441,25.7445 L168.595163,26.1644062 C168.981563,26.4102187 168.981563,26.7274687 168.629522,27.1819687 C166.800882,29.6026875 164.096082,30.7974375 160.544412,30.7974375 C155.4846,30.7974375 153.409531,27.9194063 154.219506,23.46075 L155.061024,18.8963437 L155.061024,18.8963437 Z" id="Fill-14" fill="#FFFFFF"></path>
                    <g id="Group-18" transform="translate(170.951020, 5.343750)" fill="#FFFFFF">
                        <path d="M9.77913061,8.43103125 C6.37024898,8.43103125 4.0149551,10.360125 3.41676735,13.5897187 L3.13626122,14.9588437 C4.92772653,15.3447187 6.79100816,15.553125 8.72300816,15.553125 C11.9567143,15.553125 13.8199959,14.5015312 14.346649,12.3609375 C14.9448367,9.8341875 13.2589837,8.43103125 9.77913061,8.43103125 Z M1.09583265,13.5525937 C1.90580816,8.95696875 5.17387347,6.39309375 10.1308898,6.39309375 C14.9104776,6.39309375 17.5119184,8.8138125 16.6335061,12.643875 C15.9637837,15.8360625 13.187449,17.4166875 8.37378367,17.4166875 C6.51050204,17.4166875 4.64750204,17.2395 2.81857959,16.853625 L2.50399592,18.608625 C1.97452653,21.6981563 3.45112653,23.4185625 6.93154286,23.4185625 C9.49862449,23.4185625 11.464702,22.5039375 12.9069429,20.6465625 C13.2589837,20.2575937 13.6110245,20.1549375 13.9605306,20.40075 L14.6299714,20.8206562 C15.0163714,21.0664687 15.0163714,21.3837187 14.6643306,21.8382187 C12.8354082,24.2589375 10.1308898,25.4536875 6.57950204,25.4536875 C1.51940816,25.4536875 -0.555379592,22.5756562 0.254595918,18.117 L1.09583265,13.5525937 L1.09583265,13.5525937 Z" id="Fill-15"></path>
                        <path d="M32.0022,9.588375 C30.3507061,8.92265625 28.6994939,8.568 27.048,8.568 C23.7424776,8.568 21.7735837,10.2200625 21.1779306,13.4839687 L20.2995184,18.3999375 C19.7356898,21.6638437 21.2125714,23.3128125 24.6927061,23.3128125 C26.2723837,23.3128125 27.7149061,23.1013125 29.0515347,22.6470937 C29.6469061,22.4012813 29.7528,22.2924375 29.8586939,21.7324687 L32.0022,9.588375 Z M18.8913551,13.2381562 C19.7013306,8.67684375 22.4061306,6.39309375 27.0108245,6.39309375 C28.6994939,6.39309375 30.4909592,6.74465625 32.3883184,7.41346875 L33.5776531,0.67134375 C33.6491878,0.25115625 33.8953347,0.03965625 34.3504531,0.03965625 L35.4409347,0.03965625 C35.8645102,0.03965625 36.0388408,0.25115625 35.9329469,0.67134375 L32.0737347,22.5039375 C31.8275878,23.6300625 31.5814408,23.9445 30.3507061,24.4018125 C28.5936,25.102125 26.5185306,25.4536875 24.1288776,25.4536875 C19.1718612,25.4536875 17.1686082,22.8929062 17.9785837,18.2570625 L18.8913551,13.2381562 L18.8913551,13.2381562 Z" id="Fill-17"></path>
                    </g>
                </g>
            </g>
        </g>
    </g>
</svg>