<?xml version="1.0" encoding="UTF-8"?>
<svg width="32px" height="32px" viewBox="0 0 32 32" version="1.1" xmlns="http://www.w3.org/2000/svg" xmlns:xlink="http://www.w3.org/1999/xlink">
    <title>8D7329F9-101F-4E56-A29F-54AA206F8471</title>
    <defs>
        <polygon id="path-1" points="0.00468292683 0.0311435523 31.9689366 0.0311435523 31.9689366 31.9222968 0.00468292683 31.9222968"></polygon>
    </defs>
    <g id="redesign" stroke="none" stroke-width="1" fill="none" fill-rule="evenodd">
        <g id="D_01_1_Homepage-2" transform="translate(-1366.000000, -56.000000)">
            <g id="Header" transform="translate(182.000000, 44.000000)">
                <g id="Social-media" transform="translate(1136.000000, 12.000000)">
                    <g id="twitter" transform="translate(48.000000, 0.000000)">
                        <g id="Group-3">
                            <mask id="mask-2" fill="white">
                                <use xlink:href="#path-1"></use>
                            </mask>
                            <g id="Clip-2"></g>
                        </g>
                        <path d="M26.3486318,10.3199108 C25.9041085,10.5171356 25.4429506,10.6723903 24.9697648,10.785078 C25.4912332,10.2895423 25.8834647,9.66946163 26.1047454,8.9776396 C26.1677003,8.78007365 25.9530734,8.6091228 25.7747864,8.71507138 C25.1164038,9.10559682 24.4069237,9.39853355 23.6664779,9.58577761 C23.6235696,9.59678193 23.5795523,9.60241205 23.5348526,9.60241205 C23.3999004,9.60241205 23.2689575,9.55216751 23.1656533,9.4614885 C22.3779487,8.76702201 21.3646128,8.38485645 20.3126339,8.38485645 C19.8574474,8.38485645 19.3979103,8.45583005 18.9467332,8.59581525 C17.5485873,9.02933431 16.4699079,10.1825701 16.1310772,11.6054544 C16.0040583,12.1389507 15.970107,12.6733853 16.0290526,13.1928916 C16.0357064,13.2528609 16.0077264,13.294575 15.9900683,13.3138539 C15.9594439,13.3482317 15.9161091,13.3678518 15.8711534,13.3678518 C15.8661205,13.3678518 15.8608316,13.3678518 15.8557986,13.3671694 C12.7954884,13.0829337 10.0353658,11.60844 8.0850419,9.21555472 C7.9857471,9.09331292 7.79483492,9.10824127 7.71550145,9.24421714 C7.3336771,9.90004054 7.1316753,10.6494433 7.1316753,11.4121537 C7.1316753,12.5807443 7.60153422,13.6827119 8.41730415,14.4857714 C8.07403758,14.4044759 7.74220185,14.2761775 7.43356904,14.1049707 C7.28428562,14.0219691 7.10070966,14.1286001 7.09874765,14.299551 C7.07742144,16.0359305 8.09408421,17.5811419 9.61720165,18.2768879 C9.58657722,18.2775704 9.55561158,18.2779116 9.52490184,18.2779116 C9.28365983,18.2779116 9.03909093,18.2545381 8.79844605,18.2085588 C8.63056618,18.1765695 8.48930141,18.3358335 8.54125204,18.4987657 C9.03576404,20.042271 10.3646424,21.179896 11.9550654,21.4378578 C10.6352293,22.3238336 9.09803656,22.7913893 7.49857131,22.7913893 L7.00004998,22.791048 C6.84616009,22.791048 6.71615556,22.8913665 6.67717126,23.0403087 C6.63852818,23.1866065 6.70950178,23.3411788 6.84078589,23.4175266 C8.64319129,24.4664346 10.6992079,25.0209159 12.7874697,25.0209159 C14.6152107,25.0209159 16.324975,24.6583704 17.8691628,23.942663 C19.2849668,23.2871808 20.5358766,22.3495103 21.5875143,21.1566078 C22.5672401,20.0452567 23.3332773,18.7623576 23.8644704,17.3432267 C24.3705838,15.9909748 24.638185,14.5474468 24.638185,13.1699447 L24.638185,13.1039187 C24.638185,12.8829793 24.7385035,12.6747502 24.9131224,12.532803 C25.5751731,11.9949562 26.1523455,11.3618238 26.6274933,10.6510641 C26.752806,10.4638201 26.5552401,10.2282082 26.3486318,10.3199108 Z" id="Fill-5" fill="#FFFFFF"></path>
                    </g>
                </g>
            </g>
        </g>
    </g>
</svg>