<?xml version="1.0" encoding="UTF-8"?>
<svg width="32px" height="32px" viewBox="0 0 32 32" version="1.1" xmlns="http://www.w3.org/2000/svg" xmlns:xlink="http://www.w3.org/1999/xlink">
    <title>D5A374B4-A93F-496E-9F36-8880FD3509C4</title>
    <defs>
        <polygon id="path-1" points="0.00467153285 0.0311435523 31.8911533 0.0311435523 31.8911533 31.9222968 0.00467153285 31.9222968"></polygon>
    </defs>
    <g id="redesign" stroke="none" stroke-width="1" fill="none" fill-rule="evenodd">
        <g id="D_01_1_Homepage-2" transform="translate(-1462.000000, -56.000000)">
            <g id="Header" transform="translate(182.000000, 44.000000)">
                <g id="Social-media" transform="translate(1136.000000, 12.000000)">
                    <g id="youtube" transform="translate(144.000000, 0.000000)">
                        <g id="Group-3">
                            <mask id="mask-2" fill="white">
                                <use xlink:href="#path-1"></use>
                            </mask>
                            <g id="Clip-2"></g>
                        </g>
                        <path d="M21.2803893,9.51957178 L10.6106861,9.51957178 C8.51737226,9.51957178 6.82028224,11.2166618 6.82028224,13.3097421 L6.82028224,18.6436983 C6.82028224,20.7370122 8.51737226,22.4337908 10.6106861,22.4337908 L21.2803893,22.4337908 C23.373781,22.4337908 25.0705596,20.7367007 25.0705596,18.6436983 L25.0705596,13.3097421 C25.0705596,11.2166618 23.3734696,9.51957178 21.2803893,9.51957178 Z M18.7168856,16.236146 L13.7265985,18.616292 C13.593382,18.6799027 13.4397664,18.5828127 13.4397664,18.4356594 L13.4397664,13.5265791 C13.4397664,13.3769343 13.5973528,13.2802336 13.7305693,13.3477372 L18.72109,15.8766715 C18.8698005,15.9517275 18.8670754,16.1646715 18.7168856,16.236146 Z" id="Fill-5" fill="#FFFFFF"></path>
                    </g>
                </g>
            </g>
        </g>
    </g>
</svg>